<svg version="1.1" id="Layer_1" xmlns="http://www.w3.org/2000/svg" x="0" y="0" viewBox="0 0 48 48" style="enable-background:new 0 0 48 48" xml:space="preserve"><style>.st0{fill:#b07235}.st1{opacity:.49;fill:#f7df9a;enable-background:new}.st2{fill:none}.st4{fill:#fff3dc}.st5{fill:#ce9561}.st6{fill:#191009}.st8{fill:#28170c}</style><switch><g><path class="st0" d="M33.22 9.261a26.662 26.662 0 0 1 6.561-.932 22.092 22.092 0 0 0-3.991-3.08 22.35 22.35 0 0 0-8.138-2.952 22.43 22.43 0 0 0-8.66.356 22.317 22.317 0 0 0-7.862 3.611 22.077 22.077 0 0 0-5.868 6.315c-.057.084-.12.149-.171.238 2.104-2.115 4.625-3.761 7.385-4.895a22.576 22.576 0 0 1 8.723-1.695 26.355 26.355 0 0 1 12.02 3.034h.001z"/><path class="st0" d="M4.928 34.917A18.468 18.468 0 0 1 6.302 20.47a16.69 16.69 0 0 1 6.237-6.371 16.909 16.909 0 0 1 8.66-2.284c2.796 0 6.848.671 11.4 3.537a20.865 20.865 0 0 1 10.195-1.305c.47.052.874.153 1.317.243-1.107-2.217-2.551-4.235-4.33-5.961a26.672 26.672 0 0 0-6.562.913 26.357 26.357 0 0 0-12.021-3.034 22.573 22.573 0 0 0-8.73 1.688 22.393 22.393 0 0 0-7.377 4.921 21.82 21.82 0 0 0-3.09 11.028 21.815 21.815 0 0 0 2.926 11.072h.001z"/><path class="st0" d="M40.261 13.893c-2.622.007-5.22.502-7.662 1.46-4.552-2.867-8.604-3.538-11.4-3.538a16.91 16.91 0 0 0-8.663 2.292 16.69 16.69 0 0 0-6.234 6.381 18.468 18.468 0 0 0-1.374 14.448 22.08 22.08 0 0 0 7.719 7.862c.174.103.376.22.607.345l1.158-2.023c-.7-1.463-1.522-2.753-2.382-4.068-2.744-4.404-3.105-9.69-.799-13.834a11.165 11.165 0 0 1 4.155-4.279 11.278 11.278 0 0 1 5.785-1.522c2.555 0 6.392.806 10.792 4.418 1.883-1.011 4.57-2.33 8.27-2.33.618 0 1.246.014 1.86.088 1.448.16 2.847.618 4.108 1.343a21.844 21.844 0 0 0-2.09-6.646c-.442-.089-.888-.194-1.344-.246a21.077 21.077 0 0 0-2.506-.151z"/><path class="st0" d="M24.62 45.995c-3.823.067-7.6-.851-10.957-2.665l-.353-.182c.118.065.236.12.353.181 3.766 1.949 12.158 4.824 3.173-9.27-4.74-7.447 2.546-16.642 12.892-6.743 2.824 2.712 5.393-2.932 11.7-2.172 6.195.746 2.712 8.45 1.926 10.03l-.16.275v-.024a21.728 21.728 0 0 0 3.007-14.49 10.587 10.587 0 0 0-4.109-1.342 15.521 15.521 0 0 0-1.85-.111c-3.7 0-6.41 1.356-8.279 2.353-4.372-3.588-8.208-4.427-10.764-4.427a11.28 11.28 0 0 0-5.785 1.522 11.133 11.133 0 0 0-4.165 4.257c-2.307 4.143-1.996 9.451.81 13.855a42.387 42.387 0 0 1 2.353 4.078l-1.13 2.014a22.324 22.324 0 0 0 11.339 2.861h-.001z"/><path class="st1" d="M24.62 45.995c-3.823.067-7.6-.851-10.957-2.665l-.353-.182c.118.065.236.12.353.181 3.766 1.949 12.158 4.824 3.173-9.27-4.74-7.447 2.546-16.642 12.892-6.743 2.824 2.712 5.393-2.932 11.7-2.172 6.195.746 2.712 8.45 1.926 10.03l-.16.275v-.024a21.728 21.728 0 0 0 3.007-14.49 10.587 10.587 0 0 0-4.109-1.342 15.521 15.521 0 0 0-1.85-.111c-3.7 0-6.41 1.356-8.279 2.353-4.372-3.588-8.208-4.427-10.764-4.427a11.28 11.28 0 0 0-5.785 1.522 11.133 11.133 0 0 0-4.165 4.257c-2.307 4.143-1.996 9.451.81 13.855a42.387 42.387 0 0 1 2.353 4.078l-1.13 2.014a22.324 22.324 0 0 0 11.339 2.861h-.001z"/><path class="st1" d="M4.928 34.917A18.468 18.468 0 0 1 6.302 20.47a16.69 16.69 0 0 1 6.237-6.371 16.909 16.909 0 0 1 8.66-2.284c2.796 0 6.848.671 11.4 3.537a20.865 20.865 0 0 1 10.195-1.305c.47.052.874.153 1.317.243-1.107-2.217-2.551-4.235-4.33-5.961a26.672 26.672 0 0 0-6.562.913 26.357 26.357 0 0 0-12.021-3.034 22.573 22.573 0 0 0-8.73 1.688 22.393 22.393 0 0 0-7.377 4.921 21.82 21.82 0 0 0-3.09 11.028 21.815 21.815 0 0 0 2.926 11.072h.001z"/><path class="st1" d="M40.261 13.893c-2.622.007-5.22.502-7.662 1.46-4.552-2.867-8.604-3.538-11.4-3.538a16.91 16.91 0 0 0-8.663 2.292 16.69 16.69 0 0 0-6.234 6.381 18.468 18.468 0 0 0-1.374 14.448 22.08 22.08 0 0 0 7.719 7.862c.174.103.376.22.607.345l1.158-2.023c-.708-1.402-1.522-2.753-2.382-4.068-2.744-4.418-3.105-9.69-.799-13.834a11.165 11.165 0 0 1 4.155-4.279 11.278 11.278 0 0 1 5.785-1.522c2.555 0 6.392.806 10.792 4.418 1.883-1.011 4.57-2.33 8.27-2.33.618 0 1.246.014 1.86.088 1.448.16 2.847.618 4.108 1.343a21.844 21.844 0 0 0-2.09-6.646c-.442-.089-.888-.194-1.344-.246a21.077 21.077 0 0 0-2.506-.151z"/><path class="st1" d="M40.261 13.893c-2.622.007-5.22.502-7.662 1.46-4.552-2.867-8.604-3.538-11.4-3.538a16.91 16.91 0 0 0-8.663 2.292 16.69 16.69 0 0 0-6.234 6.381 18.468 18.468 0 0 0-1.374 14.448 22.08 22.08 0 0 0 7.719 7.862c.174.103.376.22.607.345l1.158-2.023c-.708-1.402-1.522-2.753-2.382-4.068-2.794-4.457-3.114-9.706-.808-13.849a11.148 11.148 0 0 1 4.164-4.264 11.278 11.278 0 0 1 5.785-1.522c2.555 0 6.392.806 10.792 4.418 1.883-1.011 4.556-2.353 8.256-2.353.618 0 1.26.037 1.873.111 1.449.16 2.848.618 4.11 1.343a21.844 21.844 0 0 0-2.09-6.646c-.443-.089-.888-.194-1.345-.246a21.077 21.077 0 0 0-2.506-.151z"/><path class="st1" d="M24.62 45.995c-3.823.067-7.6-.851-10.957-2.665l-.353-.182c.118.065.236.12.353.181 3.766 1.949 12.158 4.824 3.173-9.27-4.74-7.447 2.546-16.642 12.892-6.743 2.824 2.712 5.393-2.932 11.7-2.172 6.195.746 2.712 8.45 1.926 10.03l-.16.275v-.024a21.728 21.728 0 0 0 3.007-14.49 10.587 10.587 0 0 0-4.109-1.342 15.521 15.521 0 0 0-1.85-.111c-3.7 0-6.41 1.356-8.279 2.353-4.372-3.588-8.208-4.427-10.764-4.427a11.28 11.28 0 0 0-5.785 1.522 11.133 11.133 0 0 0-4.165 4.257c-2.307 4.143-1.996 9.451.81 13.855a42.387 42.387 0 0 1 2.353 4.078l-1.13 2.014a22.324 22.324 0 0 0 11.339 2.861h-.001z"/><path class="st1" d="M24.62 45.995c-3.823.067-7.6-.851-10.957-2.665l-.353-.182c.118.065.236.12.353.181 3.766 1.949 12.158 4.824 3.173-9.27-4.74-7.447 2.546-16.642 12.892-6.743 2.824 2.712 5.393-2.932 11.7-2.172 6.195.746 2.712 8.45 1.926 10.03l-.16.275v-.024a21.728 21.728 0 0 0 3.007-14.49 10.587 10.587 0 0 0-4.109-1.342 15.521 15.521 0 0 0-1.85-.111c-3.7 0-6.41 1.356-8.279 2.353-4.372-3.588-8.208-4.427-10.764-4.427a11.28 11.28 0 0 0-5.785 1.522 11.133 11.133 0 0 0-4.165 4.257c-2.307 4.143-2.023 9.35.81 13.855a42.387 42.387 0 0 1 2.353 4.078l-1.13 2.014a22.324 22.324 0 0 0 11.339 2.861h-.001z"/><path class="st2" d="M2 2h45v44H2V2z"/><path d="M43.354 35.174c.786-1.58 4.269-9.284-1.925-10.03-6.308-.76-8.868 4.884-11.702 2.172-10.345-9.899-17.631-.704-12.891 6.753 8.985 14.093.597 11.218-3.173 9.27a22.36 22.36 0 0 0 16.356 1.915 22.144 22.144 0 0 0 13.175-9.787.114.114 0 0 1 0-.032v.023l.16-.284z" style="fill:#f7df9a"/><path class="st4" d="m13.174 22.996-1.337.242c-.34.062-.652.225-.896.467a1.677 1.677 0 0 0-.469.89l-.25 1.318-.244-1.319a1.681 1.681 0 0 0-.47-.888 1.71 1.71 0 0 0-.895-.468l-1.337-.242 1.337-.243a1.71 1.71 0 0 0 .896-.468c.243-.242.407-.552.469-.888l.245-1.319.25 1.32c.06.336.224.646.468.888s.556.405.896.467l1.337.243z"/><path class="st5" d="M24.22 12.533c2.316 9.927 7.87 19.07 15.867 26.863a21.781 21.781 0 0 0 3.102-3.938.114.114 0 0 0 0-.033c.056-.088.108-.182.165-.275-9.433-6.795-16.055-14.438-19.133-22.617h-.001z"/><path class="st5" d="M8.354 39.427c8.001-7.793 13.55-16.967 15.867-26.894-3.079 8.179-9.715 15.857-19.161 22.629a22.058 22.058 0 0 0 3.294 4.265z"/><path class="st0" d="M36.59 42.307a21.768 21.768 0 0 0 3.497-2.88C32.085 31.634 26.536 22.49 24.22 12.564c-2.316 9.926-7.874 19.07-15.866 26.863a22.075 22.075 0 0 0 3.502 2.87A62.653 62.653 0 0 0 24.22 14.205a62.612 62.612 0 0 0 12.37 28.103v-.001z"/><path class="st4" d="m38.388 22.846-1.04.187a1.326 1.326 0 0 0-.7.364c-.19.19-.317.431-.364.694l-.193 1.025-.193-1.025a1.305 1.305 0 0 0-.365-.694 1.326 1.326 0 0 0-.699-.364l-1.04-.187 1.04-.19c.265-.049.51-.176.7-.365.19-.189.317-.43.364-.694l.174-1.044.193 1.026a1.314 1.314 0 0 0 1.064 1.058l1.059.21v-.001zM21.42 10.725 19.91 11a1.936 1.936 0 0 0-1.022.528 1.91 1.91 0 0 0-.537 1.01l-.277 1.49-.278-1.495a1.905 1.905 0 0 0-.534-1.01 1.935 1.935 0 0 0-1.02-.528l-1.515-.275 1.516-.28a1.94 1.94 0 0 0 1.019-.529 1.9 1.9 0 0 0 .534-1.009l.278-1.496.277 1.496c.071.383.259.735.537 1.01s.635.459 1.021.528l1.511.285z"/><path class="st6" d="M32.711 36.684a63.033 63.033 0 0 1-3.638-6.781 62.36 62.36 0 0 1-4.852-15.73c-.13.75-.27 1.495-.424 2.237a62.343 62.343 0 0 1-8.072 20.274l.017.01a62.886 62.886 0 0 1-3.863 5.582c.264.173.523.35.791.513l.612.345a22.382 22.382 0 0 0 11.774 2.835 22.357 22.357 0 0 0 11.525-3.707 63.134 63.134 0 0 1-3.87-5.578z"/><path class="st2" d="M23.09 39.178c.376.027.753.041 1.13.041.217 0 .433-.015.649-.024-.217.01-.433.024-.65.024-.378 0-.754-.014-1.129-.041z"/><path d="M32.711 36.684a15.466 15.466 0 0 1-7.842 2.511c-.216.01-.432.024-.649.024a15.466 15.466 0 0 1-8.479-2.525 63.478 63.478 0 0 1-3.886 5.604c.264.172.523.337.791.5l.617.353c3.584 2.007 7.679 2.972 11.793 2.818a22.357 22.357 0 0 0 11.524-3.707 63.18 63.18 0 0 1-3.869-5.578z" style="fill:#331d0c"/><path class="st8" d="M23.09 39.178c.375.027.751.04 1.128.04.218 0 .434-.014.65-.023a15.37 15.37 0 0 0 7.834-2.525l.01.014a63.04 63.04 0 0 1-3.639-6.781 7.69 7.69 0 0 1-4.852 1.715 7.71 7.71 0 0 1-4.853-1.715 62.627 62.627 0 0 1-3.643 6.78l.017.01.006-.01a15.388 15.388 0 0 0 7.342 2.495z"/><path class="st8" d="m15.748 36.684-.006.01a15.466 15.466 0 0 0 7.348 2.484 15.388 15.388 0 0 1-7.341-2.494h-.001zm9.121 2.511a15.464 15.464 0 0 0 7.843-2.511l-.01-.014a15.37 15.37 0 0 1-7.833 2.525z"/><path class="st6" d="M26.172 31.368a7.69 7.69 0 0 0 2.901-1.465 62.36 62.36 0 0 1-4.852-15.73c-.129.75-.27 1.495-.424 2.237a62.342 62.342 0 0 1-4.429 13.493 7.71 7.71 0 0 0 6.804 1.465zM26.172 31.368z"/></g></switch></svg>