<svg version="1.1" id="Layer_1" xmlns="http://www.w3.org/2000/svg" x="0" y="0" viewBox="0 0 130 48" style="enable-background:new 0 0 130 48" xml:space="preserve"><style>.st0{fill:#b07235}.st1{opacity:.49;fill:#f7df9a;enable-background:new}.st2{fill:none}.st4{fill:#fff3dc}.st5{fill:#ce9561}.st6{fill:#191009}.st8{fill:#28170c}</style><switch><g><path class="st0" d="M33.22 9.339a26.662 26.662 0 0 1 6.562-.932 22.092 22.092 0 0 0-3.991-3.08 22.35 22.35 0 0 0-8.138-2.952 22.43 22.43 0 0 0-8.66.356 22.317 22.317 0 0 0-7.862 3.611c-2.352 1.699-4.517 4.083-6.039 6.553 0 0 .051-.089 0 0C7.196 10.78 9.717 9.134 12.477 8A22.576 22.576 0 0 1 21.2 6.305a26.355 26.355 0 0 1 12.02 3.034z"/><path class="st0" d="M4.929 34.995a18.468 18.468 0 0 1 1.374-14.447 16.69 16.69 0 0 1 6.237-6.371 16.909 16.909 0 0 1 8.66-2.284c2.796 0 6.848.671 11.4 3.537a20.865 20.865 0 0 1 10.195-1.305c.47.052.874.153 1.317.243-1.107-2.217-2.551-4.235-4.33-5.961-2.217.03-4.421.337-6.562.913a26.356 26.356 0 0 0-12.021-3.034 22.573 22.573 0 0 0-8.73 1.688 22.393 22.393 0 0 0-7.377 4.921 21.82 21.82 0 0 0-3.09 11.028 21.814 21.814 0 0 0 2.926 11.072h.001z"/><path class="st0" d="M40.262 13.971c-2.622.007-5.22.502-7.662 1.46-4.552-2.867-8.604-3.538-11.4-3.538a16.91 16.91 0 0 0-8.663 2.292 16.69 16.69 0 0 0-6.234 6.381 18.468 18.468 0 0 0-1.374 14.448 22.08 22.08 0 0 0 7.719 7.862c.174.103.376.22.607.345l1.158-2.023c-.7-1.463-1.522-2.753-2.382-4.068-2.744-4.404-3.105-9.69-.8-13.834a11.165 11.165 0 0 1 4.156-4.279 11.278 11.278 0 0 1 5.785-1.522c2.555 0 6.392.806 10.792 4.418 1.883-1.011 4.57-2.33 8.27-2.33.618 0 1.246.014 1.86.088 1.448.16 2.847.618 4.108 1.343a21.844 21.844 0 0 0-2.09-6.646c-.442-.089-.888-.194-1.344-.246-.832-.1-1.669-.15-2.506-.151z"/><path class="st0" d="M24.62 46.073c-3.822.067-7.6-.851-10.956-2.665l-.353-.182c.118.065.236.12.353.181 3.766 1.949 12.158 4.824 3.173-9.27-4.74-7.447 2.546-16.642 12.892-6.743 2.824 2.712 5.393-2.932 11.7-2.172 6.195.746 2.712 8.45 1.926 10.03l-.16.275v-.024a21.728 21.728 0 0 0 3.007-14.49 10.587 10.587 0 0 0-4.11-1.342 15.521 15.521 0 0 0-1.85-.111c-3.7 0-6.41 1.356-8.278 2.353-4.372-3.588-8.208-4.427-10.764-4.427a11.28 11.28 0 0 0-5.785 1.522 11.133 11.133 0 0 0-4.165 4.257c-2.307 4.143-1.996 9.451.81 13.855a42.387 42.387 0 0 1 2.353 4.078l-1.13 2.014a22.325 22.325 0 0 0 11.339 2.861h-.002z"/><path class="st1" d="M24.62 46.073c-3.822.067-7.6-.851-10.956-2.665l-.353-.182c.118.065.236.12.353.181 3.766 1.949 12.158 4.824 3.173-9.27-4.74-7.447 2.546-16.642 12.892-6.743 2.824 2.712 5.393-2.932 11.7-2.172 6.195.746 2.712 8.45 1.926 10.03l-.16.275v-.024a21.728 21.728 0 0 0 3.007-14.49 10.587 10.587 0 0 0-4.11-1.342 15.521 15.521 0 0 0-1.85-.111c-3.7 0-6.41 1.356-8.278 2.353-4.372-3.588-8.208-4.427-10.764-4.427a11.28 11.28 0 0 0-5.785 1.522 11.133 11.133 0 0 0-4.165 4.257c-2.307 4.143-1.996 9.451.81 13.855a42.387 42.387 0 0 1 2.353 4.078l-1.13 2.014a22.325 22.325 0 0 0 11.339 2.861h-.002z"/><path class="st1" d="M4.929 34.995a18.468 18.468 0 0 1 1.374-14.447 16.69 16.69 0 0 1 6.237-6.371 16.909 16.909 0 0 1 8.66-2.284c2.796 0 6.848.671 11.4 3.537a20.865 20.865 0 0 1 10.195-1.305c.47.052.874.153 1.317.243-1.107-2.217-2.551-4.235-4.33-5.961-2.217.03-4.421.337-6.562.913a26.356 26.356 0 0 0-12.021-3.034 22.573 22.573 0 0 0-8.73 1.688 22.393 22.393 0 0 0-7.377 4.921 21.82 21.82 0 0 0-3.09 11.028 21.814 21.814 0 0 0 2.926 11.072h.001z"/><path class="st1" d="M40.262 13.971c-2.622.007-5.22.502-7.662 1.46-4.552-2.867-8.604-3.538-11.4-3.538a16.91 16.91 0 0 0-8.663 2.292 16.69 16.69 0 0 0-6.234 6.381 18.468 18.468 0 0 0-1.374 14.448 22.08 22.08 0 0 0 7.719 7.862c.174.103.376.22.607.345l1.158-2.023c-.708-1.402-1.522-2.753-2.382-4.068-2.744-4.418-3.105-9.69-.8-13.834a11.165 11.165 0 0 1 4.156-4.279 11.278 11.278 0 0 1 5.785-1.522c2.555 0 6.392.806 10.792 4.418 1.883-1.011 4.57-2.33 8.27-2.33.618 0 1.246.014 1.86.088 1.448.16 2.847.618 4.108 1.343a21.844 21.844 0 0 0-2.09-6.646c-.442-.089-.888-.194-1.344-.246-.832-.1-1.669-.15-2.506-.151z"/><path class="st1" d="M40.262 13.971c-2.622.007-5.22.502-7.662 1.46-4.552-2.867-8.604-3.538-11.4-3.538a16.91 16.91 0 0 0-8.663 2.292 16.69 16.69 0 0 0-6.234 6.381 18.468 18.468 0 0 0-1.374 14.448 22.08 22.08 0 0 0 7.719 7.862c.174.103.376.22.607.345l1.158-2.023c-.708-1.402-1.522-2.753-2.382-4.068-2.794-4.457-3.114-9.706-.808-13.849a11.148 11.148 0 0 1 4.164-4.264 11.278 11.278 0 0 1 5.785-1.522c2.555 0 6.392.806 10.792 4.418 1.883-1.011 4.556-2.353 8.256-2.353.618 0 1.26.037 1.873.111 1.449.16 2.848.618 4.11 1.343a21.844 21.844 0 0 0-2.09-6.646c-.443-.089-.888-.194-1.345-.246-.832-.1-1.669-.15-2.506-.151z"/><path class="st1" d="M24.62 46.073c-3.822.067-7.6-.851-10.956-2.665l-.353-.182c.118.065.236.12.353.181 3.766 1.949 12.158 4.824 3.173-9.27-4.74-7.447 2.546-16.642 12.892-6.743 2.824 2.712 5.393-2.932 11.7-2.172 6.195.746 2.712 8.45 1.926 10.03l-.16.275v-.024a21.728 21.728 0 0 0 3.007-14.49 10.587 10.587 0 0 0-4.11-1.342 15.521 15.521 0 0 0-1.85-.111c-3.7 0-6.41 1.356-8.278 2.353-4.372-3.588-8.208-4.427-10.764-4.427a11.28 11.28 0 0 0-5.785 1.522 11.133 11.133 0 0 0-4.165 4.257c-2.307 4.143-1.996 9.451.81 13.855a42.387 42.387 0 0 1 2.353 4.078l-1.13 2.014a22.325 22.325 0 0 0 11.339 2.861h-.002z"/><path class="st1" d="M24.62 46.073c-3.822.067-7.6-.851-10.956-2.665l-.353-.182c.118.065.236.12.353.181 3.766 1.949 12.158 4.824 3.173-9.27-4.74-7.447 2.546-16.642 12.892-6.743 2.824 2.712 5.393-2.932 11.7-2.172 6.195.746 2.712 8.45 1.926 10.03l-.16.275v-.024a21.728 21.728 0 0 0 3.007-14.49 10.587 10.587 0 0 0-4.11-1.342 15.521 15.521 0 0 0-1.85-.111c-3.7 0-6.41 1.356-8.278 2.353-4.372-3.588-8.208-4.427-10.764-4.427a11.28 11.28 0 0 0-5.785 1.522 11.133 11.133 0 0 0-4.165 4.257c-2.307 4.143-2.023 9.35.81 13.855a42.387 42.387 0 0 1 2.353 4.078l-1.13 2.014a22.325 22.325 0 0 0 11.339 2.861h-.002z"/><path class="st2" d="M2 2.078h45v44H2v-44z"/><path d="M43.355 35.252c.786-1.58 4.269-9.284-1.925-10.03-6.308-.76-8.868 4.884-11.702 2.172-10.345-9.899-17.631-.704-12.891 6.753 8.985 14.093.597 11.218-3.173 9.27a22.36 22.36 0 0 0 16.356 1.915 22.144 22.144 0 0 0 13.175-9.787.114.114 0 0 1 0-.032v.023l.16-.284z" style="fill:#f7df9a"/><path class="st4" d="m13.175 23.074-1.337.242c-.34.062-.652.225-.896.467a1.677 1.677 0 0 0-.47.89l-.25 1.318-.243-1.319a1.681 1.681 0 0 0-.47-.888 1.71 1.71 0 0 0-.895-.468l-1.337-.242 1.337-.243a1.71 1.71 0 0 0 .896-.468c.243-.242.407-.552.469-.888l.245-1.319.25 1.32c.06.336.224.646.468.888s.556.405.896.467l1.337.243z"/><path class="st5" d="M24.22 12.611c2.317 9.927 7.87 19.101 15.868 26.894a21.958 21.958 0 0 0 3.107-3.96l.168-.309C33.93 28.441 27.3 20.79 24.222 12.611h-.002z"/><path class="st5" d="M8.355 39.505c8-7.793 13.55-16.967 15.867-26.894-3.08 8.179-9.715 15.857-19.161 22.629a22.058 22.058 0 0 0 3.294 4.265z"/><path class="st0" d="M36.59 42.385a21.768 21.768 0 0 0 3.498-2.88c-8.002-7.793-13.551-16.937-15.867-26.863-2.316 9.926-7.874 19.07-15.866 26.863a22.075 22.075 0 0 0 3.502 2.87A62.653 62.653 0 0 0 24.22 14.283a62.612 62.612 0 0 0 12.37 28.103v-.001z"/><path class="st4" d="m38.389 22.924-1.04.187a1.326 1.326 0 0 0-.7.364c-.19.19-.317.431-.364.694l-.193 1.025-.193-1.025a1.305 1.305 0 0 0-.365-.694 1.326 1.326 0 0 0-.7-.364l-1.04-.187 1.04-.19c.266-.049.51-.176.7-.365a1.3 1.3 0 0 0 .365-.694l.174-1.044.193 1.026c.098.54.523.962 1.064 1.058l1.059.21v-.001zM21.42 10.803l-1.51.275a1.936 1.936 0 0 0-1.022.528 1.91 1.91 0 0 0-.537 1.01l-.277 1.49-.278-1.495a1.905 1.905 0 0 0-.534-1.01 1.935 1.935 0 0 0-1.02-.528l-1.515-.275 1.516-.28a1.94 1.94 0 0 0 1.019-.529 1.9 1.9 0 0 0 .534-1.009l.278-1.496.277 1.496c.07.383.259.735.537 1.01s.635.459 1.02.528l1.512.285z"/><path class="st6" d="M32.712 36.762a63.033 63.033 0 0 1-3.638-6.781 62.36 62.36 0 0 1-4.852-15.73c-.13.75-.27 1.495-.424 2.237a62.343 62.343 0 0 1-8.072 20.274l.017.01a62.886 62.886 0 0 1-3.863 5.582c.264.173.523.35.79.513l.613.345a22.382 22.382 0 0 0 11.774 2.835 22.357 22.357 0 0 0 11.525-3.707 63.154 63.154 0 0 1-3.87-5.578z"/><path class="st2" d="M23.09 39.256c.377.027.754.041 1.13.041.218 0 .434-.015.65-.024-.217.01-.433.024-.65.024-.378 0-.754-.014-1.13-.041z"/><path d="M32.712 36.762a15.466 15.466 0 0 1-7.842 2.511c-.216.01-.432.024-.65.024a15.466 15.466 0 0 1-8.478-2.525 63.478 63.478 0 0 1-3.886 5.604c.264.172.523.337.79.5l.618.353c3.584 2.007 7.679 2.972 11.793 2.818A22.357 22.357 0 0 0 36.58 42.34a63.18 63.18 0 0 1-3.87-5.578h.002z" style="fill:#331d0c"/><path class="st8" d="M23.09 39.256c.376.027.752.04 1.129.04.218 0 .434-.014.65-.023a15.37 15.37 0 0 0 7.834-2.525l.01.014a63.04 63.04 0 0 1-3.64-6.781 7.69 7.69 0 0 1-4.851 1.715 7.71 7.71 0 0 1-4.853-1.715 62.628 62.628 0 0 1-3.643 6.78l.017.01.006-.01a15.388 15.388 0 0 0 7.342 2.495h-.001z"/><path class="st8" d="m15.749 36.762-.006.01a15.466 15.466 0 0 0 7.348 2.484 15.388 15.388 0 0 1-7.341-2.494h-.001zm9.12 2.511a15.464 15.464 0 0 0 7.844-2.511l-.01-.014a15.37 15.37 0 0 1-7.833 2.525h-.001z"/><path class="st6" d="M26.173 31.446a7.69 7.69 0 0 0 2.9-1.465 62.36 62.36 0 0 1-4.851-15.73c-.13.75-.27 1.495-.424 2.237a62.342 62.342 0 0 1-4.43 13.493 7.71 7.71 0 0 0 6.805 1.465z"/><path d="M53.459 24.282c0-2.988 1.977-4.34 4.005-4.34a3.68 3.68 0 0 1 2.157.575 3.625 3.625 0 0 1 1.416 1.71.49.49 0 0 1-.194.65.503.503 0 0 1-.24.067l-.187.038c-.367.07-.542-.084-.716-.42a2.39 2.39 0 0 0-.91-1.017 2.423 2.423 0 0 0-1.326-.358c-1.558 0-2.607 1.189-2.607 3.095s1.026 3.071 2.607 3.071a2.39 2.39 0 0 0 1.353-.37 2.36 2.36 0 0 0 .907-1.06c.164-.336.362-.467.715-.42l.188.037c.386.07.565.406.353.909a3.632 3.632 0 0 1-1.419 1.621 3.685 3.685 0 0 1-2.097.541c-2.028.005-4.005-1.253-4.005-4.33v.001zm16.06 3.518c.164.397 0 .676-.438.676h-.236a.682.682 0 0 1-.677-.466l-.471-1.193h-4.236l-.47 1.193a.682.682 0 0 1-.682.466h-.213c-.433 0-.621-.28-.47-.675l3.078-7.294a.663.663 0 0 1 .682-.466h.377a.673.673 0 0 1 .677.466l3.093 7.294h-.014V27.8zm-2.27-2.06-1.689-4.194-1.685 4.195h3.375l-.001-.001zm2.877 2.107 1.313-7.27a.565.565 0 0 1 .635-.522h.598a.659.659 0 0 1 .673.466l2.184 6.525 2.184-6.525a.643.643 0 0 1 .668-.466h.603a.58.58 0 0 1 .573.304.563.563 0 0 1 .062.218l1.313 7.27a.461.461 0 0 1-.279.61.476.476 0 0 1-.248.02h-.188a.587.587 0 0 1-.635-.522l-1.116-6.087-2.09 6.142a.655.655 0 0 1-.673.466h-.353a.654.654 0 0 1-.668-.466l-2.09-6.128-1.115 6.087a.59.59 0 0 1-.636.522h-.188a.475.475 0 0 1-.462-.163.464.464 0 0 1-.065-.48v-.001zm12.144.047v-7.257a.523.523 0 0 1 .352-.556c.076-.026.156-.035.235-.026h1.718c2.782 0 3.992.755 3.992 2.964s-1.21 2.969-3.982 2.969h-.942v1.906a.521.521 0 0 1-.155.436.533.533 0 0 1-.442.146h-.189a.537.537 0 0 1-.561-.35.523.523 0 0 1-.027-.232h.001zm2.503-3.141c1.61 0 2.41-.373 2.41-1.757s-.8-1.743-2.41-1.743h-1.139v3.495l1.14.005h-.001zm6.406 2.74V21.02a.873.873 0 0 1 .254-.727.889.889 0 0 1 .734-.252h1.686c3.162 0 4.184 1.072 4.184 3.262s-1.022 3.216-4.161 3.216h-.31v.932a.876.876 0 0 1-.242.768c-.2.204-.487.3-.77.257h-.405a.898.898 0 0 1-.723-.26.88.88 0 0 1-.247-.723zm4.424-4.194c0-.76-.348-1.212-1.336-1.212h-.702v2.451h.702c.988-.014 1.336-.485 1.336-1.253v.014zm3.62 4.194V21.02a.872.872 0 0 1 .254-.727.89.89 0 0 1 .734-.252h.405c.27-.031.54.062.735.252a.87.87 0 0 1 .213.334c.045.126.06.26.045.393v5.369h1.685a.882.882 0 0 1 .989.978v.112a.877.877 0 0 1-.253.73.892.892 0 0 1-.736.253h-3.083a.897.897 0 0 1-.73-.249.88.88 0 0 1-.258-.72zm5.832-2.903v-3.57a.872.872 0 0 1 .592-.937.897.897 0 0 1 .396-.042h.405c.27-.033.542.06.737.25.194.19.289.46.256.729v3.546c0 1.352.367 1.911 1.285 1.911s1.294-.56 1.294-1.901V21.02a.877.877 0 0 1 .596-.938.893.893 0 0 1 .397-.041h.419a.883.883 0 0 1 .993.979v3.574c0 2.694-1.223 3.952-3.699 3.952s-3.671-1.225-3.671-3.956zm10.209 2.903v-5.355h-.843a.9.9 0 0 1-.736-.253.874.874 0 0 1-.252-.73v-.136a.875.875 0 0 1 .988-.978h4.057c.27-.031.54.062.734.252.192.19.286.458.255.726v.122a.876.876 0 0 1-.253.73.89.89 0 0 1-.736.253h-.833v5.355a.884.884 0 0 1-.591.954.902.902 0 0 1-.402.043h-.395a.9.9 0 0 1-.95-.589.865.865 0 0 1-.043-.394zm4.589-3.211c0-3.001 1.925-4.288 4.076-4.288s4.052 1.287 4.052 4.288-1.925 4.283-4.076 4.283-4.052-1.23-4.052-4.283zm5.751 0c0-1.421-.696-2.223-1.69-2.223-.993 0-1.708.783-1.708 2.223s.668 2.251 1.704 2.251c1.035 0 1.713-.778 1.713-2.25h-.019v-.001z" style="fill:#a05e28"/></g></switch></svg>